<?xml version="1.0" encoding="UTF-8"?>
<svg id="Layer_1" xmlns="http://www.w3.org/2000/svg" version="1.1" viewBox="20 218 790 192" shape-rendering="geometricPrecision" preserveAspectRatio="xMidYMid meet">
  <!-- Generator: Adobe Illustrator 30.3.0, SVG Export Plug-In . SVG Version: 2.1.3 Build 182)  -->
  <defs>
    <style>
      .st0 {
        fill: #207a4b;
      }
    </style>
  </defs>
  <g>
    <path class="st0" d="M197.93,310.67c0-25.81,16.79-41.03,41.36-41.03,20.63,0,35.84,10.6,40.01,29.19h-15.33c-3.04-9.69-11.38-15.33-24.68-15.33-17.7,0-26.49,9.24-26.49,27.16s8.68,26.94,26.49,26.94c13.41,0,21.53-5.3,24.68-14.99h15.33c-5.41,20.96-21.53,28.97-40.01,28.97-24.8,0-41.36-15.33-41.36-40.91Z"/>
    <path class="st0" d="M285.6,271.33h13.75v14.65h-13.75v-14.65ZM285.72,293.54h13.64v56.69h-13.64v-56.69Z"/>
    <path class="st0" d="M304.99,321.6c0-18.71,11.61-30.09,29.64-30.09,6.31,0,12.29,1.69,16.68,6.09v-26.26h13.64v78.9h-13.53v-6.2c-3.61,4.62-8.79,7.33-17.81,7.44-17.92.11-28.63-11.84-28.63-29.87ZM334.63,338.51c10.71,0,16.91-5.52,16.91-14.77v-4.17c0-10.26-5.64-15.33-16.12-15.33s-16.57,5.52-16.57,17.24,6.54,17.02,15.78,17.02Z"/>
    <path class="st0" d="M399.66,291.51c18.26-.11,25.92,7.89,25.92,22.2v36.52h-13.64v-5.64c-3.27,3.49-8,6.65-17.58,6.54-13.98-.23-23.89-6.31-23.89-18.94,0-15.78,15.89-18.15,33.02-18.26l8.34-.11v-.79c0-6.43-2.03-9.02-12.17-9.02-9.47,0-11.95,2.37-12.29,8h-14.09c.56-14.43,9.47-20.29,26.37-20.51ZM395.26,338.73c10.6,0,16.57-3.04,16.57-10.26v-4.06l-7.55.23c-16.46.56-20.06,2.59-20.06,7.89,0,3.83,2.37,6.2,11.05,6.2Z"/>
    <path class="st0" d="M430.99,321.6c0-18.71,11.61-30.09,29.64-30.09,6.31,0,12.29,1.69,16.68,6.09v-26.26h13.64v78.9h-13.53v-6.2c-3.61,4.62-8.79,7.33-17.81,7.44-17.92.11-28.63-11.84-28.63-29.87ZM460.63,338.51c10.71,0,16.91-5.52,16.91-14.77v-4.17c0-10.26-5.64-15.33-16.12-15.33s-16.57,5.52-16.57,17.24,6.54,17.02,15.78,17.02Z"/>
    <path class="st0" d="M527.91,291.51c18.94,0,31.22,11.27,31.11,29.87l-.11,4.85h-47.68c.79,7.55,6.31,12.4,16.34,12.4,8.9,0,13.86-3.04,15.89-8.79h14.65c-3.83,14.65-15.44,21.64-30.54,21.64-19.27,0-31.11-11.38-31.11-29.87s12.51-30.09,31.45-30.09ZM527.57,304.25c-9.13,0-15.22,4.06-15.67,11.5h31.67c-.68-7.33-6.65-11.5-16.01-11.5Z"/>
    <path class="st0" d="M570.39,271.33h16.46l25.7,57.48,25.7-57.48h16.34l-35.95,78.9h-12.06l-36.18-78.9Z"/>
    <path class="st0" d="M658.52,271.33h13.75v14.65h-13.75v-14.65ZM658.63,293.54h13.64v56.69h-13.64v-56.69Z"/>
    <path class="st0" d="M677.91,293.54h16.01l17.47,37.87,17.7-37.87h15.44l-27.73,56.69h-11.27l-27.61-56.69Z"/>
    <path class="st0" d="M771.56,291.51c18.26-.11,25.92,7.89,25.92,22.2v36.52h-13.64v-5.64c-3.27,3.49-8,6.65-17.58,6.54-13.98-.23-23.89-6.31-23.89-18.94,0-15.78,15.89-18.15,33.02-18.26l8.34-.11v-.79c0-6.43-2.03-9.02-12.17-9.02-9.47,0-11.95,2.37-12.29,8h-14.09c.56-14.43,9.47-20.29,26.37-20.51ZM767.17,338.73c10.6,0,16.57-3.04,16.57-10.26v-4.06l-7.55.23c-16.46.56-20.06,2.59-20.06,7.89,0,3.83,2.37,6.2,11.05,6.2Z"/>
  </g>
  <g>
    <path class="st0" d="M151.32,283.34c-17.88-17.21-44.49-16.32-61.02.42-16.53,16.74-16.35,43.72.26,60.3,16.63,16.61,43.59,17.06,60.68.01l20.3,20.27c-28.2,28.18-73.56,27.72-101.26.01-27.74-27.74-27.87-73-.23-100.93,27.4-27.7,72.92-28.77,101.48-.3l-20.2,20.21Z"/>
    <path class="st0" d="M121.72,312.52h-29.49s0,.04,0,.06c0,16.5,13.37,29.87,29.87,29.87,8.19,0,15.6-3.3,21-8.63l-21.38-21.3Z"/>
    <path class="st0" d="M115.96,301.54c-3.17-6.01-9.74-9.9-16.93-9.07.15,9.32,6.97,16.29,15.33,17.17,0,0,0,.01,0,.02,12.89,1.43,24.29-8.72,24.14-21.58-10.36-.92-19.09,4.94-22.54,13.46Z"/>
  </g>
</svg>